<svg width="1920" height="2201" viewBox="0 0 1920 2201" fill="none"
    xmlns="http://www.w3.org/2000/svg">
    <g clip-path="url(#clip0)">
        <path d="M1311 1315.5C1335.67 1290.67 1361.2 1212 1266 1096C1147 951 1121 956.5 1123.5 829.5C1126 702.5 1202.5 636.5 1266 618C1329.5 599.5 1469 591 1519.5 652C1570 713 1591 785 1546 959C1501 1133 1517 1164.5 1546 1196.5C1575 1228.5 1702 1315.5 1810.5 1315.5C1897.3 1315.5 1971.67 1398.5 1998 1440L1948 1754.5L1266 1736L1311 1315.5Z" fill="#262626"/>
        <path d="M-195.5 404C-159.333 379.333 -59 340 53 380C193 430 203 456 327.5 430C452 404 502.5 309 513 277C523.5 245 610.5 25.5001 737.5 -13.9999C864.5 -53.4999 996.5 -81.9999 1062.5 -58.4999C1128.5 -34.9999 1234.5 46.5001 1245 134C1255.5 221.5 1290 438 975.5 697C661 956 893.5 1331 1062.5 1355C1231.5 1379 1234 1342.5 1324 1292C1414 1241.5 1623 1008.5 1847.5 1077.5C2027.1 1132.7 2135.33 1215.17 2167 1249.5V2201H-74L-195.5 404Z" fill="#222222"/>
        <path d="M460 887.5C413.167 855.833 300.5 811.5 224.5 887.5C129.5 982.5 225 1051 264.5 1096C304 1141 338.5 1191 386 1186C433.5 1181 539.5 1191 534 1059C529.6 953.4 482.833 900.667 460 887.5Z" fill="#262626"/>
        <path d="M1818.5 -51C1823.83 -5.16667 1820.2 93.4 1763 121C1691.5 155.5 1509 160.5 1480 261C1451 361.5 1482.5 454.5 1517 496.5C1551.5 538.5 1638.5 628 1728.5 578C1818.5 528 1831 438.5 1834 414.5C1837 390.5 1789.5 237 1818.5 189.5C1847.5 142 1855.5 121 1932 121C1993.2 121 1982.17 -9.33334 1969 -74.5L1818.5 -51Z" fill="#222222"/>
    </g>
    <defs>
        <clipPath id="clip0">
            <rect width="1920" height="2201" fill="white"/>
        </clipPath>
    </defs>
</svg>