<svg width="510" height="510" viewBox="0 0 510 510" fill="none" xmlns="http://www.w3.org/2000/svg">
<rect width="510" height="510" fill="#503CF5"/>
<path d="M238.347 126.135L206.117 84.8245C204.185 82.3481 200.33 82.5508 198.607 85.174C107.371 224.055 75.7499 300.492 189.142 395.986C186.206 361.815 191.978 327.548 205.593 296.388C205.56 296.386 205.528 296.384 205.495 296.382C222.227 256.891 252.443 207.518 299.574 144.202C301.644 141.421 300.018 137.39 296.565 136.906L244.33 129.582C241.959 129.25 239.812 128.013 238.347 126.135Z" fill="white"/>
<path d="M218.66 297.168C203.214 330.419 197.389 367.684 202.409 404.44C269.8 425.239 313.091 422.845 386.178 415.046C389.352 414.708 391.223 411.341 389.808 408.506L368.223 365.269C366.996 362.81 366.953 359.933 368.107 357.439L393.201 303.205C394.656 300.058 392.167 296.516 388.682 296.754C324.057 301.159 282.914 300.876 218.66 297.168Z" fill="white"/>
</svg>
