<svg width="510" height="510" viewBox="0 0 510 510" fill="none" xmlns="http://www.w3.org/2000/svg">
<rect width="510" height="510" fill="#503CF5"/>
<path fill-rule="evenodd" clip-rule="evenodd" d="M296.142 194.823C302.873 190.076 310.213 186.307 317.941 183.607C316.23 180.204 314.251 176.932 312.018 173.823C306.321 165.889 299.091 159.178 290.755 154.087C282.42 148.996 273.147 145.628 263.487 144.183C253.827 142.738 243.976 143.245 234.515 145.674C225.054 148.103 216.177 152.405 208.408 158.324C200.638 164.244 194.135 171.662 189.283 180.139C184.431 188.616 181.328 197.98 180.158 207.677C178.988 217.375 179.774 227.208 182.471 236.596L156.156 244.155C154.002 236.656 152.734 228.951 152.366 221.196C149.513 221.062 146.647 221.181 143.8 221.558C136.928 222.467 130.333 224.852 124.469 228.549C118.604 232.247 113.608 237.168 109.824 242.977C106.04 248.786 103.557 255.344 102.546 262.203C101.534 269.061 102.018 276.057 103.964 282.711C105.909 289.365 109.271 295.52 113.818 300.752C118.366 305.985 123.991 310.173 130.309 313.028C136.452 315.804 143.108 317.256 149.845 317.293L149.845 317.285C187.759 291.9 214.404 286.275 267.012 293.68L260.574 319.431C234.505 314.515 217.441 315.727 198.719 321.763C183.07 326.809 171.387 341.702 176.884 357.199C224.56 339.723 252.776 337.863 307.355 357.199L295.767 381.662C244.874 363.504 215.439 366.467 161.433 393.25C154.273 373.846 150.667 360.006 149.597 344.323C139.107 344.252 128.743 341.984 119.177 337.66C109.307 333.2 100.519 326.658 93.4148 318.483C86.3107 310.308 81.0586 300.693 78.0189 290.298C74.9791 279.903 74.2235 268.973 75.804 258.258C77.3844 247.544 81.2634 237.298 87.1751 228.223C93.0867 219.148 100.891 211.459 110.053 205.683C119.215 199.907 129.518 196.181 140.255 194.76C145.066 194.124 149.914 193.957 154.731 194.254C156.928 184.549 160.559 175.206 165.521 166.538C172.192 154.884 181.133 144.685 191.814 136.547C202.495 128.408 214.7 122.494 227.706 119.155C240.713 115.815 254.257 115.118 267.538 117.105C280.818 119.092 293.566 123.721 305.026 130.721C316.486 137.72 326.426 146.946 334.258 157.854C338.908 164.329 342.758 171.319 345.741 178.671C354.975 178.529 364.201 179.834 373.078 182.563C385.986 186.531 397.814 193.403 407.654 202.653C417.494 211.902 425.085 223.283 429.843 235.922C434.601 248.561 436.4 262.122 435.103 275.564C433.805 289.007 429.446 301.973 422.359 313.469C415.271 324.964 405.645 334.684 394.218 341.881C382.791 349.078 369.867 353.562 356.437 354.988L353.651 328.748C363.072 327.748 372.138 324.602 380.155 319.553C388.171 314.504 394.925 307.685 399.897 299.621C404.869 291.556 407.927 282.46 408.837 273.029C409.747 263.599 408.485 254.086 405.147 245.219C401.809 236.352 396.484 228.368 389.581 221.879C382.678 215.39 374.38 210.569 365.324 207.785C356.268 205.002 346.695 204.33 337.339 205.821C327.983 207.312 319.093 210.926 311.351 216.387L296.142 194.823ZM311.049 334.023C322.427 334.023 331.65 324.8 331.65 313.423C331.65 302.045 322.427 292.822 311.049 292.822C299.672 292.822 290.449 302.045 290.449 313.423C290.449 324.8 299.672 334.023 311.049 334.023Z" fill="white"/>
</svg>
